<?xml version="1.0" encoding="UTF-8"?>
<svg xmlns="http://www.w3.org/2000/svg" viewBox="0 0 1440 1140" font-family="'Segoe UI','Microsoft YaHei','PingFang SC',sans-serif">
  <defs>
    <marker id="arr" viewBox="0 0 10 10" refX="9" refY="5" markerWidth="9" markerHeight="9" orient="auto-start-reverse">
      <path d="M0,0 L10,5 L0,10 z" fill="#334155"/>
    </marker>
    <marker id="arrRed" viewBox="0 0 10 10" refX="9" refY="5" markerWidth="9" markerHeight="9" orient="auto-start-reverse">
      <path d="M0,0 L10,5 L0,10 z" fill="#ef4444"/>
    </marker>
    <marker id="arrGreen" viewBox="0 0 10 10" refX="9" refY="5" markerWidth="9" markerHeight="9" orient="auto-start-reverse">
      <path d="M0,0 L10,5 L0,10 z" fill="#10b981"/>
    </marker>
    <filter id="sh" x="-10%" y="-10%" width="120%" height="120%">
      <feDropShadow dx="0" dy="2" stdDeviation="3" flood-color="#0f172a" flood-opacity="0.10"/>
    </filter>
  </defs>

  <rect width="1440" height="1140" fill="#f8fafc"/>

  <!-- Title -->
  <text x="40" y="48" font-size="26" font-weight="700" fill="#0f172a">AI Ops Platform · 系统架构图（System Architecture）</text>
  <text x="40" y="74" font-size="14" fill="#64748b">分层视图 · 技术栈 · 数据流 · 已实现 vs 待实现（红色虚线 = 缺失的后端链路）</text>
  <line x1="40" y1="88" x2="1400" y2="88" stroke="#e2e8f0"/>

  <!-- ===================== MAIN COLUMN (left) ===================== -->
  <!-- layer guide labels on far left -->

  <!-- ===== L1: Client ===== -->
  <g>
    <rect x="40" y="108" width="950" height="92" rx="12" fill="#eef2ff" stroke="#c7d2fe"/>
    <text x="58" y="130" font-size="12" font-weight="700" fill="#4338ca" letter-spacing="1">L1 · 客户端层 CLIENT</text>
    <rect x="70" y="140" width="270" height="50" rx="8" fill="#fff" stroke="#cbd5e1" filter="url(#sh)"/>
    <text x="85" y="162" font-size="13" font-weight="700" fill="#1e293b">浏览器 Browser</text>
    <text x="85" y="180" font-size="11" fill="#64748b">单页应用 · Hash 路由 (#/data ...)</text>
    <rect x="360" y="140" width="300" height="50" rx="8" fill="#fff" stroke="#cbd5e1" filter="url(#sh)"/>
    <text x="375" y="162" font-size="13" font-weight="700" fill="#1e293b">用户角色</text>
    <text x="375" y="180" font-size="11" fill="#64748b">管理员 / 平台工程师（静态文本，无鉴权）</text>
    <rect x="680" y="140" width="290" height="50" rx="8" fill="#fef3c7" stroke="#fde68a"/>
    <text x="695" y="162" font-size="13" font-weight="700" fill="#92400e">无登录 / 无权限</text>
    <text x="695" y="180" font-size="11" fill="#b45309">未区分 标注员/审核员/管理员</text>
  </g>

  <!-- arrow L1 -> L2 -->
  <line x1="515" y1="200" x2="515" y2="226" stroke="#334155" stroke-width="2" marker-end="url(#arr)"/>
  <text x="525" y="218" font-size="11" fill="#475569">加载 / 渲染 / Hash 路由跳转</text>

  <!-- ===== L2: Frontend App ===== -->
  <g>
    <rect x="40" y="230" width="950" height="316" rx="12" fill="#ffffff" stroke="#bfdbfe"/>
    <text x="58" y="252" font-size="12" font-weight="700" fill="#1d4ed8" letter-spacing="1">L2 · 前端应用层 FRONTEND SPA　✅ 已实现（Vite + React 18 + TS）</text>

    <!-- infra sub-band -->
    <rect x="58" y="264" width="914" height="64" rx="8" fill="#f1f5f9" stroke="#e2e8f0"/>
    <text x="70" y="284" font-size="11" font-weight="700" fill="#475569">应用基础设施</text>
    <rect x="70" y="292" width="208" height="28" rx="6" fill="#fff" stroke="#cbd5e1"/>
    <text x="80" y="310" font-size="11.5" fill="#334155">HashRouter 路由（8 路由）</text>
    <rect x="290" y="292" width="208" height="28" rx="6" fill="#fff" stroke="#cbd5e1"/>
    <text x="300" y="310" font-size="11.5" fill="#334155">Layout · Sidebar 骨架</text>
    <rect x="510" y="292" width="208" height="28" rx="6" fill="#fff" stroke="#cbd5e1"/>
    <text x="520" y="310" font-size="11.5" fill="#334155">Tailwind 样式（CDN）</text>
    <rect x="730" y="292" width="228" height="28" rx="6" fill="#fef3c7" stroke="#fde68a"/>
    <text x="740" y="310" font-size="11.5" fill="#92400e">局部 useState · 无全局状态</text>

    <!-- 8 module chips -->
    <text x="70" y="350" font-size="11" font-weight="700" fill="#475569">8 个业务模块（pages/）</text>
    <!-- chips row 1 -->
    <g font-size="11.5">
      <rect x="70" y="360" width="160" height="34" rx="7" fill="#eff6ff" stroke="#93c5fd"/><text x="150" y="382" text-anchor="middle" fill="#1e40af">平台总览</text>
      <rect x="240" y="360" width="160" height="34" rx="7" fill="#ecfeff" stroke="#67e8f9"/><text x="320" y="382" text-anchor="middle" fill="#0e7490">数据与样本管理</text>
      <rect x="410" y="360" width="160" height="34" rx="7" fill="#ecfdf5" stroke="#6ee7b7" stroke-width="2"/><text x="490" y="382" text-anchor="middle" fill="#065f46" font-weight="700">数据标注 ★</text>
      <rect x="580" y="360" width="160" height="34" rx="7" fill="#eef2ff" stroke="#a5b4fc"/><text x="660" y="382" text-anchor="middle" fill="#3730a3">模型训练</text>
    </g>
    <!-- chips row 2 -->
    <g font-size="11.5">
      <rect x="70" y="402" width="160" height="34" rx="7" fill="#f5f3ff" stroke="#c4b5fd"/><text x="150" y="424" text-anchor="middle" fill="#5b21b6">模型评估</text>
      <rect x="240" y="402" width="160" height="34" rx="7" fill="#faf5ff" stroke="#d8b4fe"/><text x="320" y="424" text-anchor="middle" fill="#6b21a8">模型注册与版本</text>
      <rect x="410" y="402" width="160" height="34" rx="7" fill="#fffbeb" stroke="#fcd34d"/><text x="490" y="424" text-anchor="middle" fill="#92400e">推理服务</text>
      <rect x="580" y="402" width="160" height="34" rx="7" fill="#fff1f2" stroke="#fda4af"/><text x="660" y="424" text-anchor="middle" fill="#9f1239">监控与日志</text>
    </g>

    <!-- annotation workspace callout -->
    <rect x="760" y="356" width="212" height="86" rx="10" fill="#ecfdf5" stroke="#6ee7b7" stroke-width="2" filter="url(#sh)"/>
    <text x="772" y="378" font-size="12" font-weight="700" fill="#065f46">★ 标注工作台（唯一真交互）</text>
    <text x="772" y="398" font-size="10.5" fill="#475569">矩形/多边形/橡皮擦工具</text>
    <text x="772" y="414" font-size="10.5" fill="#475569">SVG 叠加 · 属性面板 · 本地上传</text>
    <text x="772" y="430" font-size="10.5" fill="#94a3b8">结果仅存内存（刷新即丢）</text>

    <!-- UI libs -->
    <rect x="58" y="460" width="914" height="44" rx="8" fill="#f8fafc" stroke="#e2e8f0"/>
    <text x="70" y="478" font-size="11" font-weight="700" fill="#475569">UI / 可视化</text>
    <text x="70" y="496" font-size="11" fill="#64748b">Recharts（面积/柱状/雷达/折线图）　·　lucide-react（图标）　·　手写混淆矩阵热力图　·　SVG 标注渲染层</text>
    <!-- arrow note bottom: 模块 -> data access -->
    <line x1="515" y1="518" x2="515" y2="546" stroke="#10b981" stroke-width="2" marker-end="url(#arrGreen)"/>
    <text x="525" y="538" font-size="11" fill="#065f46">静态 import（编译期，进程内）</text>
  </g>

  <!-- ===== L3: Data Access (mock) ===== -->
  <g>
    <rect x="40" y="550" width="950" height="108" rx="12" fill="#fff7ed" stroke="#fed7aa"/>
    <text x="58" y="572" font-size="12" font-weight="700" fill="#c2410c" letter-spacing="1">L3 · 数据访问层 DATA ACCESS　🟡 伪层（无 HTTP / 无持久化）</text>
    <rect x="70" y="584" width="560" height="62" rx="8" fill="#fff" stroke="#fcd34d" filter="url(#sh)"/>
    <text x="84" y="606" font-size="13" font-weight="700" fill="#92400e">services/mockApi.ts</text>
    <text x="84" y="624" font-size="11" fill="#64748b">4 份写死数组：mockDatasets · mockAnnotationTasks · mockTrainingJobs · mockModels</text>
    <text x="84" y="640" font-size="11" fill="#94a3b8">由各页面直接 import；无 fetch / axios / API 封装</text>
    <rect x="650" y="584" width="320" height="62" rx="8" fill="#fffbeb" stroke="#fde68a"/>
    <text x="664" y="606" font-size="12" font-weight="700" fill="#92400e">types.ts · 领域模型</text>
    <text x="664" y="624" font-size="11" fill="#64748b">JobStatus · Dataset · AnnotationTask</text>
    <text x="664" y="640" font-size="11" fill="#94a3b8">TrainingJob · ModelVersion</text>
  </g>

  <!-- GAP arrow L3 -> L4 (red dashed) -->
  <line x1="515" y1="658" x2="515" y2="700" stroke="#ef4444" stroke-width="2.4" stroke-dasharray="7 5" marker-end="url(#arrRed)"/>
  <rect x="548" y="664" width="372" height="36" rx="6" fill="#fef2f2" stroke="#fca5a5"/>
  <text x="560" y="678" font-size="11.5" fill="#b91c1c" font-weight="700">✗ 缺口：前端无任何 API 调用</text>
  <text x="560" y="694" font-size="10.5" fill="#dc2626">标注无法保存 · 无 CRUD · 无鉴权接口 · 无 fetch / axios</text>

  <!-- ===== L4: Backend (missing) ===== -->
  <g>
    <rect x="40" y="704" width="950" height="168" rx="12" fill="#fef2f2" stroke="#fca5a5" stroke-dasharray="8 5"/>
    <text x="58" y="726" font-size="12" font-weight="700" fill="#b91c1c" letter-spacing="1">L4 · 后端服务层 BACKEND　❌ 未实现（规划中）</text>
    <g font-size="11" fill="#991b1b">
      <rect x="70" y="740" width="210" height="50" rx="8" fill="#fff" stroke="#fca5a5" stroke-dasharray="4 3"/>
      <text x="175" y="762" text-anchor="middle" font-weight="700">API 网关 / 鉴权</text>
      <text x="175" y="779" text-anchor="middle" font-size="10" fill="#dc2626">登录 · 角色权限</text>

      <rect x="296" y="740" width="210" height="50" rx="8" fill="#fff" stroke="#fca5a5" stroke-dasharray="4 3"/>
      <text x="401" y="762" text-anchor="middle" font-weight="700">标注 / 数据 CRUD</text>
      <text x="401" y="779" text-anchor="middle" font-size="10" fill="#dc2626">保存 · 任务分发 · 审核流</text>

      <rect x="522" y="740" width="210" height="50" rx="8" fill="#fff" stroke="#fca5a5" stroke-dasharray="4 3"/>
      <text x="627" y="762" text-anchor="middle" font-weight="700">训练调度</text>
      <text x="627" y="779" text-anchor="middle" font-size="10" fill="#dc2626">任务启停 · Loss 流</text>

      <rect x="748" y="740" width="222" height="50" rx="8" fill="#fff" stroke="#fca5a5" stroke-dasharray="4 3"/>
      <text x="859" y="762" text-anchor="middle" font-weight="700">推理服务</text>
      <text x="859" y="779" text-anchor="middle" font-size="10" fill="#dc2626">真实模型 · 实时指标</text>

      <rect x="70" y="800" width="900" height="56" rx="8" fill="#fff" stroke="#fca5a5" stroke-dasharray="4 3"/>
      <text x="84" y="822" font-size="11" font-weight="700" fill="#991b1b">AI 辅助预标注服务</text>
      <text x="84" y="840" font-size="10.5" fill="#dc2626">现仅占位文本（“三角洲前缘 置信度89%”）— 需接入真实地质模型推理（地震相 / 沉积相 / 岩相）</text>
      <text x="560" y="822" font-size="11" font-weight="700" fill="#991b1b">指标采集服务</text>
      <text x="560" y="840" font-size="10.5" fill="#dc2626">QPS / 延迟 / 日志 现为 random 或写死</text>
    </g>
  </g>

  <!-- arrow L4 -> L5 (red dashed) -->
  <line x1="515" y1="872" x2="515" y2="900" stroke="#ef4444" stroke-width="2.4" stroke-dasharray="7 5" marker-end="url(#arrRed)"/>

  <!-- ===== L5: Infrastructure (missing) ===== -->
  <g>
    <rect x="40" y="904" width="950" height="160" rx="12" fill="#fef2f2" stroke="#fca5a5" stroke-dasharray="8 5"/>
    <text x="58" y="926" font-size="12" font-weight="700" fill="#b91c1c" letter-spacing="1">L5 · 基础设施层 INFRASTRUCTURE　❌ 未实现（规划中）</text>
    <g font-size="11" fill="#991b1b">
      <rect x="70" y="940" width="210" height="56" rx="8" fill="#fff" stroke="#fca5a5" stroke-dasharray="4 3"/>
      <text x="175" y="965" text-anchor="middle" font-size="22">🗄️</text>
      <text x="175" y="986" text-anchor="middle" font-weight="700">关系数据库</text>
      <text x="175" y="990" font-size="9">　</text>

      <rect x="296" y="940" width="210" height="56" rx="8" fill="#fff" stroke="#fca5a5" stroke-dasharray="4 3"/>
      <text x="401" y="966" text-anchor="middle" font-size="22">🗂️</text>
      <text x="401" y="987" text-anchor="middle" font-weight="700">对象存储 / 数据湖</text>

      <rect x="522" y="940" width="210" height="56" rx="8" fill="#fff" stroke="#fca5a5" stroke-dasharray="4 3"/>
      <text x="627" y="966" text-anchor="middle" font-size="22">🖥️</text>
      <text x="627" y="987" text-anchor="middle" font-weight="700">GPU 训练集群</text>

      <rect x="748" y="940" width="222" height="56" rx="8" fill="#fff" stroke="#fca5a5" stroke-dasharray="4 3"/>
      <text x="859" y="966" text-anchor="middle" font-size="22">📦</text>
      <text x="859" y="987" text-anchor="middle" font-weight="700">模型仓库 / 版本库</text>

      <rect x="70" y="1004" width="900" height="48" rx="8" fill="#fff" stroke="#fca5a5" stroke-dasharray="4 3"/>
      <text x="520" y="1032" text-anchor="middle" font-size="11" fill="#dc2626">外部数据源（海油数据湖 / S3 / PostgreSQL）— DataManager 中连接按钮当前无逻辑</text>
    </g>
  </g>

  <!-- ===================== RIGHT PANEL ===================== -->
  <!-- Tech stack -->
  <g>
    <rect x="1010" y="108" width="390" height="300" rx="12" fill="#ffffff" stroke="#e2e8f0" filter="url(#sh)"/>
    <rect x="1010" y="108" width="390" height="40" rx="12" fill="#0f172a"/>
    <rect x="1010" y="138" width="390" height="10" fill="#0f172a"/>
    <text x="1030" y="134" font-size="14" font-weight="700" fill="#fff">技术栈 TECH STACK</text>
    <g font-size="12" fill="#334155">
      <text x="1030" y="172" font-weight="700" fill="#1e293b">框架 / 语言</text>
      <text x="1030" y="192">React 18 · TypeScript 5（strict）</text>
      <text x="1030" y="212">Vite 5（dev / build / preview）</text>

      <text x="1030" y="240" font-weight="700" fill="#1e293b">路由 / 状态</text>
      <text x="1030" y="260">React Router 6（HashRouter）</text>
      <text x="1030" y="280">局部 useState —— 无 Redux / Context</text>

      <text x="1030" y="308" font-weight="700" fill="#1e293b">UI / 可视化</text>
      <text x="1030" y="328">Tailwind CSS（CDN）· Recharts · lucide-react</text>

      <text x="1030" y="356" font-weight="700" fill="#92400e">⚠ 工程隐患</text>
      <text x="1030" y="376" font-size="11" fill="#b45309">importmap(React19) ≠ package.json(React18)</text>
      <text x="1030" y="394" font-size="11" fill="#b45309">Tailwind 走 CDN，未本地化构建</text>
    </g>
  </g>

  <!-- Reality legend -->
  <g>
    <rect x="1010" y="424" width="390" height="160" rx="12" fill="#ffffff" stroke="#e2e8f0" filter="url(#sh)"/>
    <rect x="1010" y="424" width="390" height="40" rx="12" fill="#1d4ed8"/>
    <rect x="1010" y="454" width="390" height="10" fill="#1d4ed8"/>
    <text x="1030" y="450" font-size="14" font-weight="700" fill="#fff">数据流图例 LEGEND</text>
    <g font-size="12" fill="#334155">
      <line x1="1030" y1="486" x2="1080" y2="486" stroke="#10b981" stroke-width="2" marker-end="url(#arrGreen)"/>
      <text x="1090" y="490">已实现：进程内静态 import</text>
      <line x1="1030" y1="514" x2="1080" y2="514" stroke="#334155" stroke-width="2" marker-end="url(#arr)"/>
      <text x="1090" y="518">已实现：渲染 / 加载</text>
      <line x1="1030" y1="542" x2="1080" y2="542" stroke="#ef4444" stroke-width="2.4" stroke-dasharray="6 4" marker-end="url(#arrRed)"/>
      <text x="1090" y="546">缺失：未实现的后端链路</text>
      <text x="1030" y="572" font-size="11" fill="#64748b">实线边框 = 已实现模块</text>
    </g>
  </g>

  <!-- Key gaps summary -->
  <g>
    <rect x="1010" y="600" width="390" height="270" rx="12" fill="#fffbeb" stroke="#fcd34d" filter="url(#sh)"/>
    <text x="1030" y="626" font-size="14" font-weight="700" fill="#92400e">关键缺口（P0/P1）</text>
    <g font-size="11.5" fill="#78350f">
      <text x="1030" y="650"><tspan font-weight="700" fill="#b91c1c">P0</tspan>　标注结果保存 + 最小后端 CRUD</text>
      <text x="1030" y="670"><tspan font-weight="700" fill="#b91c1c">P0</tspan>　“提交保存 / AI 预标注”接真实逻辑</text>
      <text x="1030" y="690"><tspan font-weight="700" fill="#c2410c">P1</tspan>　登录鉴权 + 角色权限</text>
      <text x="1030" y="710"><tspan font-weight="700" fill="#c2410c">P1</tspan>　Training 任务提交/启停接调度</text>
      <text x="1030" y="730"><tspan font-weight="700" fill="#c2410c">P1</tspan>　Serving 推理接真实模型服务</text>
      <text x="1030" y="750"><tspan font-weight="700" fill="#a16207">P2</tspan>　Monitoring 接真实指标采集</text>
      <text x="1030" y="770"><tspan font-weight="700" fill="#a16207">P2</tspan>　Dashboard 指标取真实数据</text>
    </g>
    <line x1="1030" y1="788" x2="1380" y2="788" stroke="#fde68a"/>
    <text x="1030" y="810" font-size="11.5" font-weight="700" fill="#92400e">一句话定位</text>
    <text x="1030" y="830" font-size="11.5" fill="#78350f">8 模块 UI 已全部完成，但本质是</text>
    <text x="1030" y="850" font-size="12" font-weight="700" fill="#b45309">纯前端原型 —— 几乎无后端 / 无持久化</text>
  </g>

  <!-- footer -->
  <text x="40" y="1098" font-size="11" fill="#94a3b8">读图说明：L1–L3（白/蓝/橙底）为当前已实现的纯前端链路；L4–L5（红虚线）为尚不存在的后端与基础设施。绿色箭头=进程内数据流；黑色箭头=渲染流；红色虚线=缺失链路。</text>
  <text x="40" y="1118" font-size="11" fill="#94a3b8">生成依据：index.html · index.tsx · App.tsx · components/(Layout,Sidebar) · pages/(8) · services/mockApi.ts · types.ts · package.json · work_list.md</text>
</svg>
